<svg width="1918" height="214" viewBox="0 0 1918 214" fill="none" xmlns="http://www.w3.org/2000/svg">
<mask id="mask0" mask-type="alpha" maskUnits="userSpaceOnUse" x="0" y="0" width="1918" height="214">
<rect width="1918" height="214" fill="#C4C4C4"/>
</mask>
<g mask="url(#mask0)">
<path d="M21.9551 66.332L-3.15739 42.7043L-8.87747 288.533L1990.6 339.056L1994.9 154.15L1912.68 141.378L1884.79 128.91L1838.7 120.259C1823.72 122.376 1792.91 128.941 1789.47 138.265C1786.03 147.589 1761.89 141.489 1750.25 137.274L1650.8 107.49L1624.1 87.5654L1596.17 76.7L1542.87 96.7421L1526.23 119.85L1471.24 147.87C1444.44 153.253 1388.44 163.958 1378.78 163.714L1324.98 162.354C1317.73 162.171 1241.89 143.5 1204.87 134.188L1156.28 103.015L1138.55 86.5256L1113.67 74.6677L1084.36 58.4201L1072.95 51.1805L1054.06 63.0017L992.023 90.844L977.308 117.743L951.251 134.73L930.21 152.379L896.131 168.095L875.276 177.727L857.96 208.304L788.922 191.052L735.977 174.208L677.642 172.734L649.519 127.106L615.23 108.594L564.57 80.0429L509.121 105.913C501.776 111.609 484.472 122.936 474.011 122.671C463.551 122.407 426.008 109.695 408.544 103.371L380.977 120.321L327.361 132.334L283.373 141.382L241.136 161.704L148.097 137.964L106.593 126.755L73.7137 112.557L50.7992 80.9636L21.9551 66.332Z" fill="#DFE0E7" fill-opacity="0.6"/>
<path d="M46.1047 123.906L-0.512221 156.303L-2.12165 527.266L1918.31 577.053L1919.83 210.423L1923.14 64.1622L1856.99 100.389L1827.3 112.086L1801.75 139.067L1759.25 143.927L1721.3 123.972L1689.23 108.507L1636.07 121.763L1564.47 156.222L1520.44 162.669L1410.49 128.923L1357.28 99.9008L1325.45 74.1425L1238.56 35.0323L1171.15 82.609L1145.95 94.4221L1073.75 67.6171C1051.58 84.5681 1006.06 118.439 1001.28 118.315C996.494 118.191 970.795 128.365 958.544 133.468L925.986 139.67L903.089 115.769L873.976 102.006L854.869 86.876L820.146 100.61L802.407 113.159L794.562 129.217L782.28 142.991L708.373 169.26L642.043 125.263L601.042 107.939L576.114 85.6117L547.341 78.9035L528.771 106.065L487.033 121.244L469.956 104.541L447.159 120.21L416.097 126.451L383.257 145.113L340.694 152.682L311.483 143.252L298.807 130.457L281.183 115.907L251.147 98.868L216.054 84.9497L198.639 61.1912L165.736 38.6572L130.853 59.4338L122.546 73.8532L106.899 82.1199L66.2014 117.38L46.1047 123.906Z" fill="#DFE0E7"/>
</g>
</svg>
