<svg width="1919" height="272" viewBox="0 0 1919 272" fill="none" xmlns="http://www.w3.org/2000/svg">
<mask id="mask0" mask-type="alpha" maskUnits="userSpaceOnUse" x="-1" y="0" width="1920" height="272">
<rect x="-1" width="1920" height="272" fill="#C4C4C4"/>
</mask>
<g mask="url(#mask0)">
<g filter="url(#filter0_b)">
<path d="M-5.0912 95.3531L-27.6973 71.2309L-27.6629 244.473L-27.6575 271.751L992.366 271.969L1949.88 272.173L1949.86 185.41L1941.29 172.371L1912.58 159.638L1865.13 150.798C1849.72 152.955 1818 159.649 1814.46 169.166C1810.92 178.683 1786.07 172.451 1774.08 168.146L1671.71 137.723L1644.21 117.379L1615.46 106.282L1560.59 126.728L1543.47 150.311L1486.86 178.9C1459.28 184.389 1401.63 195.304 1391.69 195.052L1336.3 193.653C1328.84 193.464 1250.76 174.389 1212.65 164.876L1162.63 133.047L1144.37 116.211L1118.75 104.102L1088.58 87.511L1076.84 80.1189L1057.39 92.181L993.533 120.587L978.391 148.04L951.57 165.374L929.913 183.384L894.834 199.418L873.368 209.245L855.548 240.452L784.474 222.828L729.967 205.622L669.915 204.105L640.955 157.525L605.654 138.622L553.497 109.468L496.421 135.862C488.861 141.674 471.049 153.232 460.282 152.96C449.514 152.688 410.863 139.703 392.883 133.245L364.509 150.54L309.316 162.79L264.036 172.017L220.56 192.75L124.777 168.498L82.0503 157.048L48.2001 142.547L24.6048 110.294L-5.0912 95.3531Z" fill="#F2F3F6" fill-opacity="0.31"/>
</g>
<path d="M20.1543 190.432L-27.7992 223.501L-29.4558 278.743L1946.02 278.704L1948.83 278.704L1948.83 129.413L1882.94 166.392L1852.4 178.331L1826.12 205.872L1782.4 210.834L1743.36 190.466L1710.38 174.681L1655.69 188.213L1582.03 223.388L1536.74 229.969L1423.64 195.526L1368.91 165.903L1336.17 139.612L1246.79 99.6933L1177.45 148.257L1151.52 160.315L1077.25 132.957C1054.45 150.259 1007.63 184.833 1002.7 184.706C997.781 184.58 971.346 194.965 958.743 200.174L925.253 206.505L901.699 182.11L871.753 168.062L852.098 152.619L816.38 166.639L798.131 179.448L790.061 195.838L777.428 209.898L701.401 236.713L633.172 191.805L590.997 174.123L565.354 151.334L535.756 144.487L516.654 172.212L473.719 187.706L456.154 170.657L432.702 186.652L400.75 193.023L366.968 212.072L323.186 219.798L293.138 210.174L280.098 197.114L261.97 182.263L231.074 164.872L194.975 150.666L177.061 126.415L143.215 103.415L107.333 124.623L98.7877 139.341L82.6913 147.779L40.8271 183.771L20.1543 190.432Z" fill="#F2F3F6"/>
</g>
<defs>
<filter id="filter0_b" x="-47.6973" y="51.2309" width="2017.58" height="240.942" filterUnits="userSpaceOnUse" color-interpolation-filters="sRGB">
<feFlood flood-opacity="0" result="BackgroundImageFix"/>
<feGaussianBlur in="BackgroundImage" stdDeviation="10"/>
<feComposite in2="SourceAlpha" operator="in" result="effect1_backgroundBlur"/>
<feBlend mode="normal" in="SourceGraphic" in2="effect1_backgroundBlur" result="shape"/>
</filter>
</defs>
</svg>
