<svg width="1915" height="275" viewBox="0 0 1915 275" fill="none" xmlns="http://www.w3.org/2000/svg">
<mask id="mask0" mask-type="alpha" maskUnits="userSpaceOnUse" x="0" y="0" width="1915" height="275">
<rect width="1915" height="275" fill="#C4C4C4"/>
</mask>
<g mask="url(#mask0)">
<g filter="url(#filter0_b)">
<path d="M19.2566 52.332L-5.85588 28.7043L-11.576 274.533L1987.9 325.056L1992.2 140.15L1909.98 127.378L1882.09 114.91L1836 106.259C1821.02 108.376 1790.21 114.941 1786.77 124.265C1783.33 133.589 1759.19 127.489 1747.55 123.274L1648.11 93.4903L1621.4 73.5654L1593.47 62.7L1540.17 82.7421L1523.53 105.85L1468.54 133.87C1441.74 139.253 1385.74 149.958 1376.09 149.714L1322.28 148.354C1315.04 148.171 1239.19 129.5 1202.17 120.188L1153.58 89.0153L1135.85 72.5256L1110.97 60.6677L1081.66 44.4201L1070.25 37.1805L1051.36 49.0017L989.325 76.844L974.61 103.743L948.552 120.73L927.511 138.379L893.432 154.095L872.578 163.727L855.261 194.304L786.224 177.052L733.278 160.208L674.943 158.734L646.82 113.106L612.532 94.5939L561.871 66.0429L506.423 91.9127C499.078 97.6091 481.773 108.936 471.313 108.671C460.853 108.407 423.309 95.6946 405.845 89.3713L378.279 106.321L324.662 118.334L280.675 127.382L238.438 147.704L145.398 123.964L103.895 112.755L71.0152 98.5566L48.1008 66.9636L19.2566 52.332Z" fill="#F2F3F6" fill-opacity="0.31"/>
</g>
<path d="M43.4062 151.906L-3.21074 184.303L-4.82018 748.5L955.398 771.777L1915.61 785.053L1917.13 238.423L1920.44 92.1622L1854.29 128.389L1824.6 140.086L1799.05 167.067L1756.55 171.927L1718.6 151.972L1686.54 136.507L1633.37 149.763L1561.77 184.222L1517.74 190.669L1407.79 156.923L1354.58 127.901L1322.75 102.142L1235.86 63.0323L1168.46 110.609L1143.25 122.422L1071.05 95.6171C1048.88 112.568 1003.36 146.439 998.58 146.315C993.795 146.191 968.097 156.365 955.845 161.468L923.288 167.67L900.39 143.769L871.278 130.006L852.171 114.876L817.448 128.61L799.708 141.159L791.863 157.217L779.581 170.991L705.674 197.26L639.345 153.263L598.344 135.939L573.416 113.612L544.642 106.903L526.072 134.065L484.334 149.244L467.258 132.541L444.46 148.21L413.398 154.451L380.558 173.113L337.995 180.682L308.785 171.252L296.108 158.457L278.484 143.907L248.449 126.868L213.355 112.95L195.94 89.1912L163.037 66.6572L128.154 87.4338L119.848 101.853L104.2 110.12L63.5029 145.38L43.4062 151.906Z" fill="#E8E9EE"/>
</g>
<defs>
<filter id="filter0_b" x="-51.5759" y="-11.2957" width="2083.78" height="376.352" filterUnits="userSpaceOnUse" color-interpolation-filters="sRGB">
<feFlood flood-opacity="0" result="BackgroundImageFix"/>
<feGaussianBlur in="BackgroundImage" stdDeviation="20"/>
<feComposite in2="SourceAlpha" operator="in" result="effect1_backgroundBlur"/>
<feBlend mode="normal" in="SourceGraphic" in2="effect1_backgroundBlur" result="shape"/>
</filter>
</defs>
</svg>
