<svg width="28" height="34" viewBox="0 0 28 34" fill="none" xmlns="http://www.w3.org/2000/svg">
<path d="M14 0.75C10.5675 0.75 7.75001 3.5675 7.75001 7V8.25H1.57751L1.50001 9.4225L0.250015 31.9225L0.171265 33.25H27.8275L27.75 31.9212L26.5 9.4213L26.4212 8.25H20.25V7C20.25 3.5675 17.4325 0.75 14 0.75ZM14 3.25C14.9946 3.25 15.9484 3.64509 16.6516 4.34835C17.3549 5.05161 17.75 6.00544 17.75 7V8.25H10.25V7C10.25 6.00544 10.6451 5.05161 11.3483 4.34835C12.0516 3.64509 13.0054 3.25 14 3.25Z" fill="#333343"/>
<path d="M14 0.75C10.5675 0.75 7.75001 3.5675 7.75001 7V8.25H1.57751L1.50001 9.4225L0.250015 31.9225L0.171265 33.25H27.8275L27.75 31.9212L26.5 9.4213L26.4212 8.25H20.25V7C20.25 3.5675 17.4325 0.75 14 0.75ZM14 3.25C14.9946 3.25 15.9484 3.64509 16.6516 4.34835C17.3549 5.05161 17.75 6.00544 17.75 7V8.25H10.25V7C10.25 6.00544 10.6451 5.05161 11.3483 4.34835C12.0516 3.64509 13.0054 3.25 14 3.25ZM3.92127 10.75H7.75001V14.5H10.25V10.75H17.75V14.5H20.25V10.75H24.0787L25.1725 30.75H2.82876L3.92127 10.75Z" fill="#1B1B1B"/>
</svg>
