<svg width="40" height="40" viewBox="0 0 40 40" fill="none" xmlns="http://www.w3.org/2000/svg">
<path d="M20 3.75C16.5675 3.75 13.75 6.5675 13.75 10V11.25H7.57751L7.50001 12.4225L6.25001 34.9225L6.17126 36.25H33.8275L33.75 34.9212L32.5 12.4213L32.4213 11.25H26.25V10C26.25 6.5675 23.4325 3.75 20 3.75ZM20 6.25C20.9946 6.25 21.9484 6.64509 22.6517 7.34835C23.3549 8.05161 23.75 9.00544 23.75 10V11.25H16.25V10C16.25 9.00544 16.6451 8.05161 17.3484 7.34835C18.0516 6.64509 19.0055 6.25 20 6.25ZM9.92126 13.75H13.75V17.5H16.25V13.75H23.75V17.5H26.25V13.75H30.0788L31.1725 33.75H8.82877L9.92126 13.75Z" fill="#1B1B1B"/>
</svg>
