<?xml version="1.0" encoding="UTF-8" standalone="no"?>
<svg
   xmlns:dc="http://purl.org/dc/elements/1.1/"
   xmlns:cc="http://creativecommons.org/ns#"
   xmlns:rdf="http://www.w3.org/1999/02/22-rdf-syntax-ns#"
   xmlns:svg="http://www.w3.org/2000/svg"
   xmlns="http://www.w3.org/2000/svg"
   xmlns:sodipodi="http://sodipodi.sourceforge.net/DTD/sodipodi-0.dtd"
   xmlns:inkscape="http://www.inkscape.org/namespaces/inkscape"
   viewBox="0 0 12770.68 2324.42"
   version="1.1"
   id="svg88"
   sodipodi:docname="logo-dark.svg"
   inkscape:version="1.0.2 (e86c870879, 2021-01-15, custom)">
  <metadata
     id="metadata92">
    <rdf:RDF>
      <cc:Work
         rdf:about="">
        <dc:format>image/svg+xml</dc:format>
        <dc:type
           rdf:resource="http://purl.org/dc/dcmitype/StillImage" />
      </cc:Work>
    </rdf:RDF>
  </metadata>
  <sodipodi:namedview
     pagecolor="#ffffff"
     bordercolor="#666666"
     borderopacity="1"
     objecttolerance="10"
     gridtolerance="10"
     guidetolerance="10"
     inkscape:pageopacity="0"
     inkscape:pageshadow="2"
     inkscape:window-width="1920"
     inkscape:window-height="1027"
     id="namedview90"
     showgrid="false"
     inkscape:zoom="0.023822748"
     inkscape:cx="-13571.032"
     inkscape:cy="3863.6319"
     inkscape:window-x="-8"
     inkscape:window-y="410"
     inkscape:window-maximized="1"
     inkscape:current-layer="svg88" />
  <defs
     id="defs54">
    <style
       id="style52">.cls-1{fill-rule:evenodd;}</style>
  </defs>
  <g
     id="Слой_2"
     data-name="Слой 2">
    <g
       id="Слой_1-2"
       data-name="Слой 1">
      <path
         class="cls-1"
         d="M4219.29,639.2c.09-103.5,2.56-171.4,63-237.4,72.53-82.2,166.73-91.1,306.82-91.1,142.5,0,231.86,8.9,306.66,91.1,65.16,69.6,62.69,128.5,62.6,237.4-.08,100-.14,169.7-63,237.5-74.94,82.1-164.31,91.1-306.81,91.1-137.68,0-234.28-9-306.67-91.1C4226.39,814.2,4219.21,737.4,4219.29,639.2ZM4589.36,0c-256,0-557.93,5.4-739.18,128.6-183.67,125-191.09,342.8-191.24,510.6-.13,164.3,6.93,383.9,190.39,510.7,178.63,123.5,487.78,128.8,739,128.8s560.34-5.3,739.18-128.8c183.66-126.8,191.09-346.4,191.23-510.7.14-167.8-6.93-385.6-190.39-510.6C5147.28,5.4,4845.37,0,4589.36,0Z"
         id="path56" />
      <path
         class="cls-1"
         d="M7054.78,1264.2l.26-310.7H6586.48c-181.15,0-338.14,0-410.52-98.2-14.47-21.4-41-67.9-40.88-207.1.05-60.7,7.38-162.5,55.74-225,75-100,207.79-98.2,386.52-98.2H7029l.26-310.7H6314.33c-190.81,0-437.17,16.1-591.88,162.5C5601.6,289.3,5574.9,446.4,5574.73,655.3c-.2,239.3,52.83,362.5,154.2,455.3,137.56,126.8,313.86,153.6,577.12,153.6Z"
         id="path58" />
      <path
         class="cls-1"
         d="M7140.88,1264.2h545.8l1.1-1249.9h-545.9Zm1867,0-656.5-528.5c-60.4-48.3-70-89.3-70-116.1.1-32.1,26.7-67.8,50.8-89.3l587.4-516h-647.3l-454.5,471.4c-31.4,32.1-53.2,91.1-53.2,137.5-.1,55.3,26.4,112.5,74.7,157.1l511.6,483.9Z"
         id="path60" />
      <path
         class="cls-1"
         d="M9008.48,14.3h420.3l-.6,744.6c0,8.9,0,30.3,26.5,30.3,19.3,0,33.9-17.8,45.9-30.3l616.5-642.8C10221,7.2,10382.78,0,10474.58,0c195.7,0,379.2,59,379,221.4l-.8,1042.8h-420.3l.6-741c.1-35.7-26.5-35.7-33.7-35.7-17,0-33.9,17.8-46,30.3l-611.6,637.4c-106.3,111-239.2,123.5-367.2,123.5-355,0-367-178.8-366.9-223.4Z"
         id="path62" />
      <path
         class="cls-1"
         d="M2426.35,953.5H2587.7c181.14,0,338.14,0,410.67-98.2,14.52-21.4,41.12-67.9,41.23-207.1.06-60.7-7.1-162.5-55.36-225-74.78-100-207.63-98.2-386.36-98.2h-171Zm-520.71,307.9,1-1247.1H2861.4c190.81,0,437.15,16.1,591.61,162.5C3573.68,289.3,3600.12,446.4,3600,655.3c-.2,239.3-53.44,362.5-155,455.3-137.78,126.8-314.12,153.6-577.38,153.6Z"
         id="path64" />
      <path
         class="cls-1"
         d="M12240,1237h-.3a98.67,98.67,0,0,0-98.4,98.49h.1v.23h-.1a98.64,98.64,0,0,0,98.5,98.4v0h.2v0a98.45,98.45,0,0,0,98.4-98.48v-.23A98.5,98.5,0,0,0,12240,1237Zm-.1-18.1h.1a116.6,116.6,0,0,1,116.5,116.51h.1v.23h-.1a116.63,116.63,0,0,1-116.5,116.57v0h-.2v0a116.78,116.78,0,0,1-116.6-116.49v-.23a116.77,116.77,0,0,1,116.5-116.59Z"
         id="path66" />
      <path
         class="cls-1"
         d="M12205.08,1328h36.9c7.9,0,14-.82,18.4-2.45a19.37,19.37,0,0,0,10.1-7.8,21.07,21.07,0,0,0,3.5-11.63,19.21,19.21,0,0,0-6.7-15.14c-4.5-4-11.5-5.93-21.1-5.93h-41.1Zm-17.2,72.5V1270.7h57.6c11.5,0,20.3,1.2,26.4,3.5a28.57,28.57,0,0,1,14.4,12.32,37,37,0,0,1,5.4,19.59c0,9.22-3,17-9,23.27s-15.1,10.33-27.6,12.06a43.64,43.64,0,0,1,10.4,6.46,90.58,90.58,0,0,1,14.2,17.26l22.6,35.33h-21.6l-17.2-27c-5-7.76-9.1-13.75-12.4-17.86s-6.1-7-8.7-8.67a25.41,25.41,0,0,0-7.8-3.48,55.37,55.37,0,0,0-9.6-.6h-19.9v57.63Z"
         id="path68" />
      <path
         class="cls-1"
         d="M10163.38,1973.25V1605.17h266.1v43.45h-217.4v112.69h203.6v43.21h-203.6v125.29h226v43.44ZM9351.78,1855l45.9-4q3.3,27.64,15.2,45.33c8,11.82,20.3,21.34,37.1,28.63s35.5,10.87,56.4,10.87q27.9,0,49.2-8.21c14.2-5.57,24.9-13.12,31.8-22.72a52.59,52.59,0,0,0,10.5-31.52,47.5,47.5,0,0,0-10.2-30.27c-6.6-8.65-17.7-15.84-33-21.68-10-3.85-31.7-9.85-65.6-18-33.7-8.16-57.5-15.76-71-23-17.6-9.15-30.7-20.65-39.4-34.26a84.9,84.9,0,0,1-12.8-45.87,93.56,93.56,0,0,1,15.7-52q15.9-24.3,46.3-36.86t67.5-12.49c27.3,0,51.3,4.36,72.2,13.2s36.9,21.67,48.1,38.71,17.2,36.42,18.1,58l-46.7,3.52c-2.6-23.23-11.1-40.88-25.6-52.69s-35.8-17.83-64.1-17.83c-29.5,0-50.9,5.4-64.4,16.2s-20.2,23.8-20.2,39c0,13.27,4.8,24.17,14.3,32.64s33.8,17.32,73.4,26.23,66.8,16.8,81.5,23.48c21.4,9.93,37.3,22.45,47.5,37.54s15.2,32.64,15.2,52.35-5.5,38.07-16.8,55.36-27.3,30.78-48.3,40.46-44.6,14.38-70.9,14.38c-33.3,0-61.2-4.79-83.7-14.55s-40.2-24.26-53-43.8S9352.38,1879.58,9351.78,1855Zm-564.3-249.81h48.7v212.71c0,36.93-4.1,66.33-12.5,88.1s-23.5,39.42-45.4,53-50.5,20.46-85.9,20.46c-34.5,0-62.8-5.9-84.6-17.82-22-11.81-37.6-29-47-51.58s-14.1-53.22-14.1-92.21V1605.17h48.7v212.44q0,48,9,70.62c5.9,15.18,16.1,26.83,30.5,35.06s32.3,12.33,53.2,12.33q53.7,0,76.6-24.41c15.1-16.2,22.8-47.39,22.8-93.6Zm-1057.1,189.56q0,66.58,35.7,104.81t89.8,38.3q55.05,0,90.5-38.64t35.6-109.77c0-29.91-5.2-56.06-15.3-78.41s-24.9-39.69-44.4-52-41.4-18.4-65.6-18.4c-34.6,0-64.2,11.82-89.1,35.55S7730.38,1739.38,7730.38,1794.73Zm-50.3-.77q0-91.65,49.2-143.45,49.35-51.81,127.1-51.85c33.9,0,64.6,8.14,91.9,24.34a159.85,159.85,0,0,1,62.4,68c14.3,29,21.4,61.94,21.4,98.7q0,56.05-22.5,100.21-22.65,44.19-64,66.93a183.24,183.24,0,0,1-89.4,22.68c-34.7,0-65.7-8.3-92.9-25.11-27.4-16.7-48-39.59-62.1-68.55A208.08,208.08,0,0,1,7680.08,1794ZM6874,1973.25V1605.17h48.75v151.18h191.3V1605.17h48.7v368.08h-48.7V1799.79h-191.3v173.46Zm-1203.76-43.44h78.58c24.26,0,43.37-2.23,57.14-6.79s24.78-10.87,33-19.1c11.58-11.48,20.56-27.08,27-46.54s9.69-43.11,9.69-71q0-57.72-18.94-88.7c-12.69-20.73-28-34.53-46.11-41.56-13-5.06-34.11-7.55-63-7.55h-77.37Zm-48.67,43.44V1605.17h126.74q42.93,0,65.55,5.31,31.63,7.23,54,26.32c19.35,16.44,33.93,37.37,43.52,62.91s14.5,54.65,14.5,87.49q0,41.92-9.86,74.29t-25.11,53.66c-10.22,14.12-21.36,25.29-33.51,33.32s-26.74,14.32-43.88,18.53-36.93,6.25-59.13,6.25Zm-772.93-205.59h104.7c22.21,0,39.69-2.33,52.19-7s22.13-12,28.62-22.11a59.63,59.63,0,0,0,9.78-33c0-17.41-6.24-31.72-18.93-42.93s-32.57-16.81-59.91-16.81H4848.67ZM4800,1973.25V1605.17h163.19q49.22,0,74.8,10t41,34.94a105.06,105.06,0,0,1,15.26,55.55c0,26.13-8.41,48.07-25.38,66s-43,29.3-78.32,34.19c12.94,6.17,22.7,12.25,29.38,18.33,14.24,13,27.7,29.4,40.47,48.94l64,100.18h-61.29l-48.67-76.62c-14.22-22-26-39-35.24-50.63s-17.38-20-24.67-24.61a73.59,73.59,0,0,0-22.18-9.85c-5.57-1.12-14.58-1.72-27.18-1.72h-56.46v163.43Zm-729.05-151.18h124.86l-38.48-101.9q-17.48-46.38-26.06-76.35a467.69,467.69,0,0,1-19.88,70.37Zm-106.18,151.18,141.39-368.08h52.45l150.67,368.08h-55.53l-42.93-111.49H4056.87l-40.36,111.49Zm-775.18-178.52q0,66.58,35.74,104.81t89.81,38.3q55,0,90.49-38.64t35.58-109.77c0-29.91-5.16-56.06-15.26-78.41s-24.94-39.69-44.39-52-41.4-18.4-65.64-18.4q-51.84,0-89,35.55T3189.56,1794.73Zm-50.22-.77q0-91.65,49.2-143.45t127.08-51.85q50.9,0,91.87,24.34t62.38,68c14.31,29,21.43,61.94,21.43,98.7q0,56.05-22.54,100.21t-64,66.93a183.12,183.12,0,0,1-89.41,22.68c-34.69,0-65.62-8.3-92.89-25.11a161,161,0,0,1-62-68.55A207.51,207.51,0,0,1,3139.34,1794Zm-732.49,135.85h91.62c15.77,0,26.81-.61,33.16-1.72,11.23-2.06,20.56-5.4,28.11-10.13s13.71-11.47,18.6-20.38,7.29-19.28,7.29-31c0-13.71-3.51-25.62-10.56-35.82s-16.78-17.24-29.3-21.36-30.42-6.07-53.81-6.07h-85.11Zm0-170h79.61c21.51,0,37-1.45,46.45-4.28,12.35-3.68,21.7-9.79,27.94-18.34s9.42-19.29,9.42-32.15c0-12.16-2.9-23-8.74-32.21a44.65,44.65,0,0,0-25.11-19.11q-16.3-5.14-56-5.15h-73.54Zm-48.75,213.39V1605.17h138.12c28.12,0,50.66,3.79,67.64,11.14a86.54,86.54,0,0,1,39.93,34.46c9.59,15.43,14.48,31.63,14.48,48.58a83.25,83.25,0,0,1-12.86,44.41c-8.47,13.87-21.43,25.08-38.65,33.66,22.28,6.51,39.33,17.65,51.34,33.34s18,34.37,18,55.8a107.46,107.46,0,0,1-11,48.06c-7.28,14.85-16.27,26.23-27,34.29s-24.16,14-40.27,18.16-35.91,6.18-59.38,6.18Z"
         id="path70" />
      <path
         class="cls-1"
         d="M1737.94,13.6H0Q5,324.7,359.87,349.2H1738Z"
         id="path72" />
      <path
         class="cls-1"
         d="M1737.94,472.3H355.5q5,311.1,359.87,335.6H1738Z"
         id="path74" />
      <path
         class="cls-1"
         d="M1737.94,908.1H768.33q5,311.1,359.87,335.5H1738Z"
         id="path76" />
      <path
         class="cls-1"
         d="M11032.78,13.6h1737.9q-5,311.1-359.8,335.6h-1378.2Z"
         id="path78" />
      <path
         class="cls-1"
         d="M11032.78,472.3h1382.4q-5,311.1-359.8,335.6h-1022.7Z"
         id="path80" />
      <path
         class="cls-1"
         d="M11032.78,908.1h969.6q-5.1,311.1-359.9,335.5h-609.8Z"
         id="path82" />
      <rect
         x="2428.3"
         y="2267.89"
         width="7914.11"
         height="56.53"
         id="rect84" />
    </g>
  </g>
</svg>
