<?xml version="1.0" encoding="UTF-8" standalone="no"?>
<svg
   xmlns:dc="http://purl.org/dc/elements/1.1/"
   xmlns:cc="http://creativecommons.org/ns#"
   xmlns:rdf="http://www.w3.org/1999/02/22-rdf-syntax-ns#"
   xmlns:svg="http://www.w3.org/2000/svg"
   xmlns="http://www.w3.org/2000/svg"
   xmlns:sodipodi="http://sodipodi.sourceforge.net/DTD/sodipodi-0.dtd"
   xmlns:inkscape="http://www.inkscape.org/namespaces/inkscape"
   version="1.1"
   id="Слой_1"
   x="0px"
   y="0px"
   viewBox="0 0 300 80"
   xml:space="preserve"
   sodipodi:docname="logo.svg"
   width="300"
   height="80"
   inkscape:version="1.0.2 (e86c870879, 2021-01-15, custom)"><metadata
   id="metadata62"><rdf:RDF><cc:Work
       rdf:about=""><dc:format>image/svg+xml</dc:format><dc:type
         rdf:resource="http://purl.org/dc/dcmitype/StillImage" /><dc:title></dc:title></cc:Work></rdf:RDF></metadata><defs
   id="defs60" /><sodipodi:namedview
   pagecolor="#ffffff"
   bordercolor="#666666"
   borderopacity="1"
   objecttolerance="10"
   gridtolerance="10"
   guidetolerance="10"
   inkscape:pageopacity="0"
   inkscape:pageshadow="2"
   inkscape:window-width="1920"
   inkscape:window-height="1027"
   id="namedview58"
   showgrid="false"
   inkscape:zoom="2.252266"
   inkscape:cx="114.48499"
   inkscape:cy="50.965935"
   inkscape:window-x="-8"
   inkscape:window-y="410"
   inkscape:window-maximized="1"
   inkscape:current-layer="Слой_1" />
<style
   type="text/css"
   id="style37">
	.st0{fill:#2F2F2F;}
	.st1{fill:#FFFFFF;}
	.st2{fill:#ECEAE4;}
</style>

<g
   id="g55"
   transform="matrix(0.27292407,0,0,0.27292407,2.6210022,-106.83244)">
	<path
   class="st0"
   d="m 605.88,596.24 v 2.29 H 553 v -92.78 h 52.89 v 2.29 h -44.22 v 41.04 h 34.78 v 2.29 h -34.78 v 44.86 h 44.21 z m -29.3,-99.92 -0.9,-0.64 9.82,-19.75 h 12.49 z"
   id="path41" />
	<path
   class="st0"
   d="m 292.18,596.24 v 2.29 h -43.37 v -92.78 h 8.67 v 90.48 h 34.7 z"
   id="path43" />
	<path
   class="st0"
   d="m 688.51,596.24 v 2.29 h -43.37 v -92.78 h 8.67 v 90.48 h 34.7 z"
   id="path45" />
	<path
   class="st0"
   d="m 314.56,552.91 c -0.17,-14.19 4.46,-25.89 13.89,-35.11 9.43,-9.22 20.9,-13.74 34.41,-13.57 13.16,-0.17 24.29,4.18 33.38,13.06 9.09,8.88 13.55,20.24 13.38,34.09 0.18,14.19 -4.46,25.89 -13.89,35.11 -9.43,9.22 -20.9,13.74 -34.41,13.57 -13.17,0.17 -24.32,-4.18 -33.45,-13.06 -9.12,-8.88 -13.56,-20.24 -13.31,-34.09 z m 83.97,9.52 c 3.5,-13.05 2.86,-24.72 -1.9,-35.01 -4.76,-10.29 -12.4,-16.84 -22.91,-19.66 -10.37,-2.95 -20.14,-1.22 -29.3,5.21 -9.16,6.43 -15.41,16.06 -18.76,28.88 -3.58,13.03 -2.93,24.74 1.93,35.15 4.87,10.41 12.57,16.94 23.12,19.59 10.21,2.91 19.92,1.14 29.13,-5.32 9.21,-6.46 15.44,-16.07 18.69,-28.84 z"
   id="path47" />
	<path
   class="st0"
   d="m 513.88,573.17 c 0,7.9 -3.36,14.1 -10.07,18.61 -6.71,4.5 -16.14,6.75 -28.29,6.75 h -25.87 v -92.78 h 27.02 c 10.19,0 17.95,1.93 23.26,5.8 5.3,3.87 7.96,9.28 7.96,16.25 0,5.69 -2,10.45 -5.99,14.27 -3.99,3.74 -8.79,6.24 -14.4,7.52 v 0.25 c 7.56,0.51 13.85,2.89 18.86,7.14 5.01,4.25 7.52,9.65 7.52,16.19 z m -39,-65.38 h -16.57 v 41.93 h 18.74 c 6.63,0 11.85,-1.95 15.67,-5.86 3.91,-3.91 5.86,-8.92 5.86,-15.04 0,-6.29 -2.08,-11.36 -6.25,-15.23 -4.15,-3.86 -9.97,-5.8 -17.45,-5.8 z m 29.31,67.04 c 0,-6.97 -2.23,-12.55 -6.69,-16.76 -4.46,-4.21 -10.47,-6.31 -18.04,-6.31 h -21.15 v 43.84 c 1.53,0.34 3.74,0.55 6.63,0.64 4.25,0.17 7.05,0.26 8.41,0.26 20.56,-0.01 30.84,-7.23 30.84,-21.67 z"
   id="path49" />
	<path
   class="st0"
   d="m 725.04,598.53 v -92.78 h 8.66 v 92.78 z"
   id="path51" />
	<polygon
   class="st0"
   points="821.76,549.08 821.76,551.38 786.98,551.38 786.98,596.24 831.19,596.24 831.19,598.53 778.31,598.53 778.31,505.75 831.19,505.75 831.19,508.05 786.98,508.05 786.98,549.08 "
   id="polygon53" />
</g>
</svg>
