<svg width="1920" height="557" viewBox="0 0 1920 557" fill="none" xmlns="http://www.w3.org/2000/svg">
<g filter="url(#filter0_b)">
<path d="M21.9551 24.18L-3.15739 0.552341L-8.87747 506.38L990.861 531.642L1990.6 556.904L1994.9 111.998L1912.68 99.2263L1884.79 86.7577L1838.7 78.1069C1823.72 80.2238 1792.91 86.7888 1789.47 96.113C1786.03 105.437 1761.89 99.3374 1750.25 95.1219L1650.8 65.3383L1624.1 45.4134L1596.17 34.548L1542.87 54.5901L1526.23 77.6975L1471.24 105.718C1444.44 111.101 1388.44 121.806 1378.78 121.562L1324.98 120.203C1317.73 120.02 1241.89 101.348 1204.87 92.0356L1156.28 60.8634L1138.55 44.3736L1113.67 32.5157L1084.36 16.2681L1072.95 9.02852L1054.06 20.8498L992.023 48.692L977.308 75.5911L951.251 92.5785L930.21 110.227L896.131 125.943L875.276 135.576L857.96 166.152L788.922 148.9L735.977 132.056L677.642 130.582L649.519 84.9542L615.23 66.442L564.57 37.891L509.121 63.7608C501.776 69.4571 484.472 80.7838 474.011 80.5195C463.551 80.2552 426.008 67.5426 408.544 61.2193L380.977 78.1686L327.361 90.1819L283.373 99.2302L241.136 119.552L148.097 95.812L106.593 84.6035L73.7137 70.4046L50.7992 38.8116L21.9551 24.18Z" fill="#F2F3F6" fill-opacity="0.31"/>
</g>
<defs>
<filter id="filter0_b" x="-28.8774" y="-19.4477" width="2043.78" height="596.352" filterUnits="userSpaceOnUse" color-interpolation-filters="sRGB">
<feFlood flood-opacity="0" result="BackgroundImageFix"/>
<feGaussianBlur in="BackgroundImage" stdDeviation="10"/>
<feComposite in2="SourceAlpha" operator="in" result="effect1_backgroundBlur"/>
<feBlend mode="normal" in="SourceGraphic" in2="effect1_backgroundBlur" result="shape"/>
</filter>
</defs>
</svg>
