<svg width="1920" height="543" viewBox="0 0 1920 543" fill="none" xmlns="http://www.w3.org/2000/svg">
<path d="M46.1049 89.335L-0.512008 121.732L-2.12144 492.696L1918.31 542.482L1919.83 175.852L1923.14 29.5915L1856.99 65.8182L1827.3 77.515L1801.75 104.496L1759.25 109.356L1721.3 89.4018L1689.23 73.9358L1636.07 87.1922L1564.47 121.652L1520.44 128.098L1410.49 94.3526L1357.28 65.3301L1325.45 39.5717L1238.56 0.461556L1171.15 48.0382L1145.95 59.8514L1073.75 33.0464C1051.58 49.9973 1006.06 83.8681 1001.28 83.7441C996.494 83.6201 970.795 93.7943 958.544 98.897L925.987 105.099L903.089 81.1986L873.977 67.4353L854.87 52.3053L820.147 66.0398L802.407 78.5884L794.562 94.6458L782.28 108.42L708.373 134.689L642.043 90.6918L601.043 73.3682L576.114 51.0409L547.341 44.3327L528.771 71.4946L487.033 86.6733L469.957 69.9698L447.159 85.6395L416.097 91.8806L383.257 110.542L340.694 118.111L311.483 108.681L298.807 95.8862L281.183 81.3367L251.148 64.2973L216.054 50.3789L198.639 26.6204L165.736 4.08644L130.853 24.8631L122.547 39.2824L106.899 47.5491L66.2017 82.8097L46.1049 89.335Z" fill="#F2F3F6"/>
</svg>
