<svg width="330" height="355" viewBox="0 0 330 355" fill="none" xmlns="http://www.w3.org/2000/svg">
<g clip-path="url(#clip0)">
<path d="M166.738 340.241C256.375 340.241 329.04 267.575 329.04 177.938C329.04 88.3013 256.375 15.6361 166.738 15.6361C77.1008 15.6361 4.43555 88.3013 4.43555 177.938C4.43555 267.575 77.1008 340.241 166.738 340.241Z" fill="#2D89DE"/>
<mask id="mask0" mask-type="alpha" maskUnits="userSpaceOnUse" x="-55" y="-49" width="398" height="398">
<path d="M143.74 348.248C253.33 348.248 342.171 259.407 342.171 149.817C342.171 40.2262 253.33 -48.6145 143.74 -48.6145C34.1493 -48.6145 -54.6914 40.2262 -54.6914 149.817C-54.6914 259.407 34.1493 348.248 143.74 348.248Z" fill="#2D89DE"/>
</mask>
<g mask="url(#mask0)">
<path opacity="0.09" d="M124.879 235.757C182.395 235.757 229.021 189.131 229.021 131.614C229.021 74.098 182.395 27.4719 124.879 27.4719C67.3625 27.4719 20.7363 74.098 20.7363 131.614C20.7363 189.131 67.3625 235.757 124.879 235.757Z" fill="black"/>
<path d="M192.009 179.807L163.796 204.023L247.404 301.432L275.617 277.216L192.009 179.807Z" fill="#909BA0"/>
<path d="M298.367 332.584L298.694 332.303C321.949 312.343 319.051 323.422 300.666 301.994L213.749 200.114C213.364 199.663 212.893 199.293 212.362 199.027C211.831 198.762 211.253 198.606 210.661 198.568C210.068 198.531 209.475 198.613 208.915 198.809C208.355 199.006 207.84 199.313 207.401 199.712L181.051 223.72C180.257 224.444 179.753 225.432 179.633 226.501C179.513 227.569 179.787 228.644 180.402 229.526L272.62 352.605" fill="#B16428"/>
<path opacity="0.12" d="M179.939 195.225L167.58 208.187L207.79 202.779L193.935 181.542L179.939 195.225Z" fill="url(#paint0_linear)"/>
<path opacity="0.86" d="M111.911 208.182C165.08 208.182 208.182 165.08 208.182 111.911C208.182 58.7426 165.08 15.6408 111.911 15.6408C58.7425 15.6408 15.6406 58.7426 15.6406 111.911C15.6406 165.08 58.7425 208.182 111.911 208.182Z" fill="#F5F6F7"/>
<g opacity="0.59">
<path opacity="0.59" d="M46.394 88.483C55.1119 59.0339 82.4482 38.4989 113.239 39.2141C143.969 39.9293 170.8 61.9835 177.714 91.9281C179.658 100.37 192.897 97.9722 190.947 89.5161C183.001 55.0419 153.86 29.3697 118.657 26.0602C83.9627 22.788 51.2087 43.2435 37.0684 74.6747C35.7289 77.7332 34.5967 80.8785 33.6794 84.089C31.2253 92.3675 43.9212 96.8223 46.394 88.4784V88.483Z" fill="white"/>
<path opacity="0.59" d="M194.232 118.116C195.602 113.42 192.905 108.502 188.208 107.132C183.512 105.762 178.594 108.459 177.224 113.156C175.855 117.852 178.551 122.77 183.248 124.14C187.944 125.51 192.862 122.813 194.232 118.116Z" fill="white"/>
</g>
<path d="M18.2117 121.485C17.6858 99.1515 24.9586 77.3329 38.7794 59.7818C52.0034 43.1267 70.8883 30.9964 91.6476 26.2097C113.368 21.1837 136.16 23.8691 156.118 33.8058C173.521 42.561 188.147 52.7981 197.319 69.9908C188.386 50.9003 172.834 35.1006 154.005 25.6582C134.05 15.7133 111.258 13.0195 89.5348 18.0388C68.7754 22.8254 49.8953 34.951 36.6665 51.6061C22.8465 69.1576 15.5737 90.976 16.0988 113.309C16.4961 128.002 20.3167 142.399 27.2568 155.356C21.6989 143.562 18.5155 134.601 18.2117 121.485Z" fill="#BCBCD3"/>
<path d="M205.85 112.711C205.258 135.042 196.906 156.469 182.23 173.311C168.206 189.283 148.723 200.455 127.753 204.209C107.132 207.978 85.844 204.836 67.1907 195.271C48.5375 185.706 33.5621 170.252 24.5879 151.308C32.5672 170.833 47.3292 187.367 65.6484 197.758C85.087 208.675 107.717 212.49 129.661 208.551C150.63 204.812 170.095 193.631 184.137 177.658C198.813 160.816 207.164 139.389 207.757 117.058C208.091 102.368 204.993 87.8023 198.707 74.5204C203.722 86.6142 206.154 99.6222 205.85 112.711Z" fill="white"/>
<path d="M196.828 39.0225C156.576 -7.87649 85.9214 -13.2615 39.0224 26.9904C-7.87652 67.2422 -13.2615 137.902 26.9904 184.801C67.2422 231.699 137.902 237.084 184.8 196.828C231.699 156.571 237.084 85.9214 196.828 39.0225ZM174.615 184.964C134.269 219.593 73.492 214.974 38.8588 174.615C4.22568 134.255 8.86276 73.4873 49.2081 38.8589C89.5535 4.23039 150.331 8.86279 184.987 49.2081C219.644 89.5535 214.96 150.331 174.615 184.964Z" fill="#EBEBF1"/>
<path d="M212.28 214.64C210.831 213.01 208.334 212.863 206.703 214.312C205.073 215.761 204.926 218.258 206.375 219.888L225.423 241.32C226.872 242.951 229.369 243.098 230.999 241.648C232.63 240.199 232.777 237.703 231.328 236.072L212.28 214.64Z" fill="#C47229"/>
<path d="M183.702 234.037L193.215 228.1C193.215 228.1 198.464 222.818 208.009 231.068C217.555 239.319 298.956 332.888 298.956 332.888L273.564 354.605L183.702 234.037Z" fill="#A35425"/>
</g>
</g>
<defs>
<linearGradient id="paint0_linear" x1="169.353" y1="193.491" x2="206.07" y2="197.973" gradientUnits="userSpaceOnUse">
<stop stop-color="#252524"/>
<stop offset="0.36"/>
<stop offset="1" stop-color="white" stop-opacity="0"/>
</linearGradient>
<clipPath id="clip0">
<rect width="329.041" height="354.61" fill="white"/>
</clipPath>
</defs>
</svg>
