<svg width="1919" height="203" viewBox="0 0 1919 203" fill="none" xmlns="http://www.w3.org/2000/svg">
<g filter="url(#filter0_b)">
<path d="M-5.09953 24.4963L-27.7011 0.172913L-27.7011 174.894L-27.7011 202.405L992.333 202.405L1949.86 202.405L1949.86 114.9L1941.29 101.752L1912.58 88.9164L1865.13 80.0109C1849.72 82.1902 1817.99 88.9484 1814.46 98.5472C1810.92 108.146 1786.06 101.866 1774.08 97.5269L1671.71 66.8664L1644.21 46.3548L1615.47 35.1696L1560.6 55.8018L1543.47 79.5895L1486.85 108.435C1459.27 113.976 1401.62 124.997 1391.68 124.746L1336.29 123.346C1328.83 123.158 1250.75 103.937 1212.64 94.3497L1162.62 62.2597L1144.37 45.2845L1118.75 33.0774L1088.58 16.3514L1076.84 8.89868L1057.39 21.068L993.53 49.73L978.382 77.421L951.557 94.9086L929.897 113.077L894.814 129.255L873.346 139.172L855.519 170.648L784.449 152.889L729.945 135.548L669.892 134.031L640.941 87.0599L605.643 68.0025L553.491 38.6109L496.41 65.2424C488.849 71.1065 471.035 82.7666 460.267 82.4945C449.499 82.2224 410.85 69.1356 392.871 62.6261L364.493 80.0745L309.298 92.4415L264.015 101.756L220.535 122.676L124.756 98.2373L82.0306 86.6988L48.1829 72.0819L24.5938 39.5587L-5.09953 24.4963Z" fill="#F2F3F6" fill-opacity="0.31"/>
</g>
<defs>
<filter id="filter0_b" x="-47.7011" y="-19.8271" width="2017.56" height="242.232" filterUnits="userSpaceOnUse" color-interpolation-filters="sRGB">
<feFlood flood-opacity="0" result="BackgroundImageFix"/>
<feGaussianBlur in="BackgroundImage" stdDeviation="10"/>
<feComposite in2="SourceAlpha" operator="in" result="effect1_backgroundBlur"/>
<feBlend mode="normal" in="SourceGraphic" in2="effect1_backgroundBlur" result="shape"/>
</filter>
</defs>
</svg>
