<svg width="1920" height="172" viewBox="0 0 1920 172" fill="none" xmlns="http://www.w3.org/2000/svg">
<path d="M21.9551 24.332L-3.15739 0.704318L-8.87747 246.533L1990.6 297.056L1994.9 112.15L1912.68 99.3783L1884.79 86.9097L1838.7 78.2589C1823.72 80.3758 1792.91 86.9407 1789.47 96.265C1786.03 105.589 1761.89 99.4894 1750.25 95.2739L1650.8 65.4903L1624.1 45.5654L1596.17 34.7L1542.87 54.7421L1526.23 77.8495L1471.24 105.87C1444.44 111.253 1388.44 121.958 1378.78 121.714L1324.98 120.354C1317.73 120.171 1241.89 101.5 1204.87 92.1876L1156.28 61.0153L1138.55 44.5256L1113.67 32.6677L1084.36 16.4201L1072.95 9.1805L1054.06 21.0017L992.023 48.844L977.308 75.743L951.251 92.7305L930.21 110.379L896.131 126.095L875.276 135.727L857.96 166.304L788.922 149.052L735.977 132.208L677.642 130.734L649.519 85.1062L615.23 66.5939L564.57 38.0429L509.121 63.9127C501.776 69.6091 484.472 80.9357 474.011 80.6714C463.551 80.4071 426.008 67.6946 408.544 61.3713L380.977 78.3206L327.361 90.3339L283.373 99.3822L241.136 119.704L148.097 95.9639L106.593 84.7555L73.7137 70.5566L50.7992 38.9636L21.9551 24.332Z" fill="#DFE0E7" fill-opacity="0.6"/>
</svg>
