<svg width="1926" height="243" viewBox="0 0 1926 243" fill="none" xmlns="http://www.w3.org/2000/svg">
<path d="M48.3549 88.9058L1.73799 121.303L0.128566 242.053L1920.56 242.053L1922.08 175.423L1925.39 29.1622L1859.24 65.3889L1829.55 77.0858L1804 104.067L1761.5 108.927L1723.55 88.9725L1691.48 73.5065L1638.32 86.7629L1566.72 121.222L1522.69 127.669L1412.74 93.9234L1359.53 64.9008L1327.7 39.1425L1240.81 0.0322962L1173.4 47.609L1148.2 59.4221L1076 32.6171C1053.83 49.5681 1008.31 83.4389 1003.53 83.3148C998.744 83.1908 973.045 93.3651 960.794 98.4677L928.237 104.67L905.339 80.7693L876.227 67.006L857.12 51.876L822.397 65.6105L804.657 78.1592L796.812 94.2165L784.53 107.991L710.623 134.26L644.293 90.2626L603.293 72.9389L578.364 50.6117L549.591 43.9035L531.021 71.0653L489.283 86.244L472.207 69.5406L449.409 85.2103L418.347 91.4513L385.507 110.113L342.944 117.682L313.733 108.252L301.057 95.457L283.433 80.9074L253.398 63.868L218.304 49.9497L200.889 26.1912L167.986 3.65718L133.103 24.4338L124.797 38.8532L109.149 47.1199L68.4517 82.3805L48.3549 88.9058Z" fill="#F2F3F6"/>
</svg>
