<svg width="1920" height="179" viewBox="0 0 1920 179" fill="none" xmlns="http://www.w3.org/2000/svg">
<path d="M46.1047 88.9058L-0.512221 121.303L-2.12165 492.266L1918.31 542.053L1919.83 175.423L1923.14 29.1622L1856.99 65.3889L1827.3 77.0858L1801.75 104.067L1759.25 108.927L1721.3 88.9725L1689.23 73.5065L1636.07 86.7629L1564.47 121.222L1520.44 127.669L1410.49 93.9234L1357.28 64.9008L1325.45 39.1425L1238.56 0.0322962L1171.15 47.609L1145.95 59.4221L1073.75 32.6171C1051.58 49.5681 1006.06 83.4389 1001.28 83.3148C996.494 83.1908 970.795 93.3651 958.544 98.4677L925.986 104.67L903.089 80.7693L873.976 67.006L854.869 51.876L820.146 65.6105L802.407 78.1592L794.562 94.2165L782.28 107.991L708.373 134.26L642.043 90.2626L601.042 72.9389L576.114 50.6117L547.341 43.9035L528.771 71.0653L487.033 86.244L469.956 69.5406L447.159 85.2103L416.097 91.4513L383.257 110.113L340.694 117.682L311.483 108.252L298.807 95.457L281.183 80.9074L251.147 63.868L216.054 49.9497L198.639 26.1912L165.736 3.65718L130.853 24.4338L122.546 38.8532L106.899 47.1199L66.2014 82.3805L46.1047 88.9058Z" fill="#E8E9EE"/>
</svg>
